<?xml version="1.0" standalone="no"?>
<!DOCTYPE svg PUBLIC "-//W3C//DTD SVG 20010904//EN"
 "http://www.w3.org/TR/2001/REC-SVG-20010904/DTD/svg10.dtd">
<svg version="1.0" xmlns="http://www.w3.org/2000/svg"
 width="728.000000pt" height="410.000000pt" viewBox="0 0 728.000000 410.000000"
 preserveAspectRatio="xMidYMid meet">

<g transform="translate(0.000000,410.000000) scale(0.100000,-0.100000)"
fill="#000000" stroke="none">
<path d="M0 2050 l0 -2050 3640 0 3640 0 0 2050 0 2050 -3640 0 -3640 0 0
-2050z m3284 1785 c-2 -46 -5 -53 -21 -51 -17 1 -18 -17 -21 -226 l-2 -228
-40 0 -40 0 -2 228 -3 227 -22 -1 c-13 -1 -23 3 -23 7 0 5 4 9 9 9 5 0 8 13 6
29 l-4 29 82 -2 c75 -1 82 -3 81 -21z m96 -85 c0 -91 3 -110 15 -110 12 0 15
19 15 110 l0 110 40 0 40 0 0 -265 0 -265 -40 0 -40 0 0 115 c0 96 -3 115 -15
115 -12 0 -15 -19 -15 -115 l0 -115 -40 0 -40 0 0 265 0 265 40 0 40 0 0 -110z
m275 70 c0 -32 -2 -35 -30 -35 l-30 0 -3 -72 -3 -73 31 0 c28 0 30 -2 30 -40
0 -38 -2 -40 -30 -40 l-30 0 0 -74 0 -75 33 -3 c29 -3 32 -6 32 -38 l0 -35
-72 -3 -73 -3 0 266 0 266 73 -3 72 -3 0 -35z m-465 -748 l0 -229 30 5 c29 4
30 3 30 -32 l0 -36 -70 0 -70 0 0 260 0 260 40 0 40 0 0 -228z m244 196 c3
-18 8 -64 11 -103 4 -38 8 -88 10 -110 2 -22 6 -76 10 -120 3 -44 8 -97 11
-117 l6 -38 -40 0 c-38 0 -40 2 -46 38 -3 20 -6 49 -6 65 0 35 -39 40 -42 5
-1 -13 -3 -32 -4 -43 -1 -11 -2 -30 -3 -42 -1 -20 -6 -23 -42 -23 l-41 0 6 48
c3 26 8 79 12 117 3 39 7 84 9 100 2 17 7 73 11 125 6 81 9 115 13 128 1 1 28
2 61 2 59 0 59 0 64 -32z m220 10 c11 -15 16 -45 16 -85 l0 -63 -40 0 -40 0 0
55 c0 57 -15 74 -26 29 -13 -50 3 -93 55 -150 l51 -56 0 -101 c0 -125 -8 -137
-90 -137 -76 0 -87 13 -95 113 l-6 78 43 -3 c43 -3 43 -3 44 -43 2 -65 3 -75
14 -75 6 0 10 28 10 65 0 64 -1 66 -50 120 -58 64 -64 81 -58 174 5 91 15 101
94 101 54 0 65 -3 78 -22z m196 -13 c0 -28 -4 -35 -20 -35 -19 0 -20 -7 -20
-225 l0 -225 -42 0 -43 0 0 222 0 223 -22 -2 c-20 -2 -23 2 -23 37 l0 40 85 0
85 0 0 -35z m-565 -545 c13 -10 15 -52 15 -250 0 -275 3 -265 -93 -265 -50 1
-62 4 -78 24 -20 24 -26 57 -9 46 9 -6 15 29 11 63 -1 6 3 12 9 12 5 0 10 4
10 9 0 6 -8 8 -19 6 -17 -3 -18 7 -20 166 -1 156 0 170 18 188 16 16 31 19 81
17 33 -2 67 -9 75 -16z m623 -8 c7 -9 12 -45 12 -84 l0 -68 -34 0 c-35 0 -35
0 -38 52 -5 78 -28 76 -28 -2 0 -60 1 -63 44 -104 53 -52 67 -91 63 -181 -5
-108 -20 -122 -122 -116 -55 3 -65 20 -65 114 l0 78 38 -3 37 -3 3 -63 c3 -74
25 -82 30 -12 5 63 -3 84 -47 126 -54 51 -62 76 -59 179 3 79 5 91 24 100 31
15 126 7 142 -13z m-447 6 c0 -7 2 -23 5 -35 3 -20 0 -23 -31 -23 l-35 0 0
-75 0 -75 30 0 c28 0 30 -3 30 -35 0 -32 -2 -35 -30 -35 l-30 0 0 -115 0 -115
-40 0 -40 0 0 260 0 260 70 0 c49 0 70 -4 71 -12z m149 -219 c0 -180 3 -230
13 -227 9 4 13 61 15 231 l2 227 40 0 40 0 0 -243 c0 -290 3 -282 -94 -282
-100 0 -96 -11 -99 278 l-2 247 43 0 42 0 0 -231z m-356 -404 c-4 -8 -11 -12
-16 -9 -6 4 -5 10 3 15 19 12 19 11 13 -6z m-48 -10 c4 -8 12 -15 20 -15 22 0
16 -31 -7 -37 -15 -4 -17 -8 -8 -14 10 -6 9 -12 -5 -28 -11 -12 -25 -21 -33
-21 -7 0 -13 -7 -13 -15 0 -21 -31 -55 -43 -48 -6 4 -8 -1 -4 -10 4 -11 1 -17
-9 -17 -8 0 -12 -5 -9 -10 3 -6 -3 -24 -15 -40 -27 -38 -9 -40 19 -2 15 19 19
21 14 7 -3 -11 -18 -36 -33 -55 -15 -19 -32 -45 -39 -57 -6 -13 -19 -23 -27
-23 -8 0 -12 -4 -9 -10 3 -5 1 -18 -5 -27 -9 -16 -10 -15 -5 5 4 13 2 22 -4
22 -6 0 -11 -7 -11 -15 0 -8 -8 -15 -17 -15 -15 0 -16 2 -3 10 8 5 12 12 8 15
-3 4 -3 19 2 35 5 18 4 32 -3 39 -8 8 -7 11 2 11 10 0 9 6 -3 25 -14 21 -14
29 -4 48 6 12 13 28 14 36 2 8 5 25 9 38 3 13 1 23 -5 23 -6 0 -8 5 -4 11 5 8
9 8 14 -1 5 -9 9 -9 14 -1 4 6 4 16 0 23 -5 8 -2 9 9 5 16 -6 22 8 18 35 0 4
6 5 13 2 10 -4 22 8 36 35 13 27 27 41 40 41 11 0 20 -5 20 -11 0 -6 -6 -9
-14 -6 -8 3 -18 -5 -25 -19 -6 -15 -7 -24 -1 -24 6 0 10 4 10 8 0 5 11 15 25
22 14 8 23 20 21 27 -4 9 3 13 20 13 13 0 27 -7 30 -15z m304 -27 c0 -9 4 -8
10 2 8 12 10 9 10 -12 0 -15 4 -29 8 -32 4 -2 9 -20 10 -39 3 -37 -37 -125
-63 -140 -8 -4 -15 -15 -15 -22 0 -8 -7 -15 -15 -15 -8 0 -15 4 -15 10 0 5 -7
7 -15 4 -8 -4 -22 -1 -30 6 -22 18 -75 21 -75 4 0 -7 5 -16 11 -20 8 -5 6 -10
-5 -16 -9 -5 -21 -6 -28 -2 -7 4 -8 3 -4 -4 5 -8 -1 -12 -18 -12 -14 0 -28 -5
-31 -10 -4 -6 -12 -4 -21 5 -9 8 -20 13 -25 10 -14 -9 -10 7 6 29 15 19 15 19
15 -5 1 -21 3 -20 16 11 15 32 17 33 24 15 8 -18 9 -18 10 5 2 14 2 29 1 34
-1 5 4 4 12 -2 12 -10 15 0 21 65 8 87 22 114 57 111 13 -1 34 2 46 6 16 5 23
2 26 -11 4 -14 5 -13 6 4 1 15 6 21 15 17 8 -3 17 -1 21 5 9 15 35 14 35 -1z
m-349 -158 c-34 -49 -38 -44 -9 13 13 24 26 40 29 34 4 -5 -5 -27 -20 -47z
m-205 -36 c-3 -9 -6 -20 -6 -25 0 -6 -5 -7 -10 -4 -8 5 -7 12 2 23 9 12 6 11
-10 -2 -23 -20 -31 -9 -10 12 18 18 41 15 34 -4z m-16 -68 c0 -5 -7 -3 -15 4
-8 7 -15 8 -15 2 0 -5 7 -15 15 -22 9 -7 13 -15 11 -18 -6 -6 -36 23 -36 35 0
5 5 14 12 21 9 9 14 9 20 -1 4 -6 8 -16 8 -21z m251 -57 c-12 -12 -25 -18 -29
-14 -4 4 4 15 17 26 31 25 41 15 12 -12z m209 27 c0 -3 -4 -8 -10 -11 -5 -3
-10 -1 -10 4 0 6 5 11 10 11 6 0 10 -2 10 -4z m-453 -62 c-3 -3 -12 -4 -19 -1
-8 3 -5 6 6 6 11 1 17 -2 13 -5z m385 -326 c-9 -9 -15 -9 -24 0 -9 9 -7 12 12
12 19 0 21 -3 12 -12z m21 -22 c4 -10 1 -13 -9 -9 -15 6 -19 23 -5 23 5 0 11
-7 14 -14z m-75 -8 c-2 -6 -10 -14 -16 -16 -7 -2 -10 2 -6 12 7 18 28 22 22 4z
m3 -42 c-13 -16 -41 -11 -41 6 0 7 5 6 14 -1 11 -9 15 -8 20 5 4 9 9 14 13 11
3 -4 0 -13 -6 -21z m-577 -26 c-15 -22 -29 -38 -32 -35 -6 6 40 75 51 75 4 0
-5 -18 -19 -40z m-2 -58 c-7 -2 -12 -10 -12 -18 0 -9 -4 -12 -10 -9 -6 4 -5
13 2 25 7 10 17 16 22 13 6 -4 5 -8 -2 -11z m180 -77 c3 4 5 -1 3 -12 -2 -10
-4 -27 -5 -38 -3 -25 -28 71 -28 105 0 16 4 10 12 -18 6 -24 14 -41 18 -37z
m-252 -25 c0 -5 -4 -10 -10 -10 -5 0 -10 5 -10 10 0 6 5 10 10 10 6 0 10 -4
10 -10z m-39 -28 c-6 -2 -18 -10 -25 -18 -8 -8 -22 -11 -32 -7 -12 4 -15 3
-10 -5 4 -7 2 -12 -3 -12 -6 0 -11 -5 -11 -12 0 -9 3 -9 12 0 19 19 28 14 28
-13 0 -18 -7 -28 -26 -35 -38 -15 -42 -12 -14 10 15 12 20 20 11 20 -8 0 -23
-7 -33 -17 -24 -22 -22 -6 5 42 14 24 29 39 39 37 9 -1 18 5 22 13 3 9 10 14
15 10 5 -3 13 0 17 7 6 9 9 9 12 -2 3 -8 0 -16 -7 -18z m321 6 c-7 -7 -12 -8
-12 -2 0 14 12 26 19 19 2 -3 -1 -11 -7 -17z"/>
<path d="M3358 3075 c-2 -71 0 -95 10 -95 9 0 12 25 12 89 0 122 -18 127 -22
6z"/>
<path d="M3197 2663 c-9 -8 -9 -356 -1 -377 18 -46 24 3 24 184 0 183 -4 213
-23 193z"/>
<path d="M3837 2707 c-3 -9 1 -18 9 -21 16 -6 18 2 5 22 -7 11 -9 11 -14 -1z"/>
<path d="M3110 2013 c-13 -15 -12 -16 4 -10 10 4 20 7 22 7 2 0 4 5 4 10 0 15
-13 12 -30 -7z"/>
</g>
</svg>
